<svg xmlns="http://www.w3.org/2000/svg" version="1.1" xmlns:xlink="http://www.w3.org/1999/xlink" xmlns:svgjs="http://svgjs.dev/svgjs" width="1500" height="284" viewBox="0 0 1500 284"><g transform="matrix(1,0,0,1,-0.9090909090909918,-0.4349458993786186)"><svg viewBox="0 0 396 75" data-background-color="#ffffff" preserveAspectRatio="xMidYMid meet" height="284" width="1500" xmlns="http://www.w3.org/2000/svg" xmlns:xlink="http://www.w3.org/1999/xlink"><g id="tight-bounds" transform="matrix(1,0,0,1,0.2400000000000091,0.1148624734274506)"><svg viewBox="0 0 395.52 74.77027505314508" height="74.77027505314508" width="395.52"><g><svg viewBox="0 0 528.0699729601527 99.827915467075" height="74.77027505314508" width="395.52"><g transform="matrix(1,0,0,1,132.54997296015276,11.782592008909916)"><svg viewBox="0 0 395.5199999999999 76.26273144925517" height="76.26273144925517" width="395.5199999999999"><g id="textblocktransform"><svg viewBox="0 0 395.5199999999999 76.26273144925517" height="76.26273144925517" width="395.5199999999999" id="textblock"><g><svg viewBox="0 0 395.5199999999999 76.26273144925517" height="76.26273144925517" width="395.5199999999999"><g transform="matrix(1,0,0,1,0,0)"><svg width="395.5199999999999" viewBox="0.24 -33.28 175.35999999999999 33.82" height="76.26273144925517" data-palette-color="#fff"><path d="M15.63-28.98Q16.6-28.98 17.2-28.6 17.8-28.22 18.09-27.39L18.09-27.39 26.71-3.32 28.2-3.32Q29.03-3.32 29.38-2.94 29.74-2.56 29.74-1.66L29.74-1.66Q29.74-0.76 29.38-0.38 29.03 0 28.2 0L28.2 0 19.56 0Q18.73 0 18.37-0.38 18.02-0.76 18.02-1.66L18.02-1.66Q18.02-2.56 18.37-2.94 18.73-3.32 19.56-3.32L19.56-3.32 22.85-3.32 20.85-9.13 9.01-9.13 6.98-3.32 9.94-3.32Q10.77-3.32 11.12-2.94 11.47-2.56 11.47-1.66L11.47-1.66Q11.47-0.76 11.12-0.38 10.77 0 9.94 0L9.94 0 1.78 0Q0.95 0 0.6-0.38 0.24-0.76 0.24-1.66L0.24-1.66Q0.24-2.56 0.6-2.94 0.95-3.32 1.78-3.32L1.78-3.32 3.15-3.32 11.23-25.66 6.67-25.66Q5.83-25.66 5.48-26.04 5.13-26.42 5.13-27.32L5.13-27.32Q5.13-28.22 5.48-28.6 5.83-28.98 6.67-28.98L6.67-28.98 15.63-28.98ZM15.19-25.66L14.72-25.66 10.16-12.45 19.73-12.45 15.19-25.66ZM52.44-23.1Q54.34-23.1 56-22.12L56-22.12Q56.98-21.53 56.98-20.61L56.98-20.61Q56.98-20.17 56.76-19.58L56.76-19.58Q56.25-18.19 55.34-18.19L55.34-18.19Q54.98-18.19 54.66-18.38L54.66-18.38Q53.46-19.04 52.1-19.04L52.1-19.04Q49.9-19.04 47.68-17.52 45.46-15.99 44.03-13.45 42.6-10.91 42.6-8.06L42.6-8.06 42.6-3.32 50.83-3.32Q51.66-3.32 52.01-2.94 52.37-2.56 52.37-1.66L52.37-1.66Q52.37-0.76 52.01-0.38 51.66 0 50.83 0L50.83 0 35.1 0Q34.27 0 33.92-0.38 33.57-0.76 33.57-1.66L33.57-1.66Q33.57-2.56 33.92-2.94 34.27-3.32 35.1-3.32L35.1-3.32 38.94-3.32 38.94-19.24 35.84-19.24Q35.01-19.24 34.65-19.62 34.3-20 34.3-20.9L34.3-20.9Q34.3-21.8 34.65-22.18 35.01-22.56 35.84-22.56L35.84-22.56 40.82-22.56Q41.65-22.56 42-22.18 42.36-21.8 42.36-20.9L42.36-20.9 42.36-15.97Q43.53-18.12 45.19-19.73 46.85-21.34 48.73-22.22 50.61-23.1 52.44-23.1L52.44-23.1ZM82.64-23.1Q83.64-23.1 84.05-22.73 84.47-22.36 84.47-21.51L84.47-21.51 84.47-16.87Q84.47-16.02 84.05-15.65 83.64-15.28 82.64-15.28L82.64-15.28Q81.81-15.28 81.46-15.92L81.46-15.92Q80.41-17.92 78.41-18.74 76.41-19.56 73.33-19.56L73.33-19.56Q70.97-19.56 69.64-18.71 68.31-17.87 68.31-16.36L68.31-16.36Q68.31-15.58 68.81-15.09 69.31-14.6 70.28-14.28L70.28-14.28Q71.09-14.01 72.15-13.87 73.21-13.72 74.9-13.55L74.9-13.55Q77.27-13.28 78.72-13.05 80.17-12.82 81.46-12.35L81.46-12.35Q83.42-11.65 84.5-10.3 85.59-8.96 85.59-6.76L85.59-6.76Q85.59-4.57 84.48-2.92 83.37-1.27 81.23-0.37 79.1 0.54 76.12 0.54L76.12 0.54Q73.48 0.54 71.48-0.2 69.48-0.93 67.99-2.42L67.99-2.42 67.99-1.05Q67.99-0.2 67.57 0.17 67.16 0.54 66.16 0.54L66.16 0.54Q65.16 0.54 64.74 0.17 64.33-0.2 64.33-1.05L64.33-1.05 64.33-6.91Q64.33-7.76 64.74-8.13 65.16-8.5 66.16-8.5L66.16-8.5Q66.67-8.5 66.96-8.26 67.26-8.03 67.48-7.5L67.48-7.5Q68.35-5.15 70.41-4.08 72.46-3 75.87-3L75.87-3Q78.71-3 80.22-4.03 81.73-5.05 81.73-6.76L81.73-6.76Q81.73-7.59 81.2-8.13 80.66-8.67 79.66-9.01L79.66-9.01Q78.8-9.28 77.69-9.46 76.58-9.64 74.87-9.81L74.87-9.81Q72.58-10.06 71.04-10.33 69.5-10.6 68.21-11.11L68.21-11.11Q66.43-11.82 65.44-13.07 64.45-14.33 64.45-16.36L64.45-16.36Q64.45-18.48 65.56-20.01 66.67-21.53 68.64-22.31 70.6-23.1 73.09-23.1L73.09-23.1Q75.46-23.1 77.42-22.39 79.39-21.68 80.81-20.41L80.81-20.41 80.81-21.51Q80.81-22.36 81.22-22.73 81.64-23.1 82.64-23.1L82.64-23.1ZM105.8-22.56Q106.63-22.56 106.99-22.18 107.34-21.8 107.34-20.9L107.34-20.9 107.34-3.32 115.18-3.32Q116.01-3.32 116.36-2.94 116.72-2.56 116.72-1.66L116.72-1.66Q116.72-0.76 116.36-0.38 116.01 0 115.18 0L115.18 0 96.04 0Q95.21 0 94.85-0.38 94.5-0.76 94.5-1.66L94.5-1.66Q94.5-2.56 94.85-2.94 95.21-3.32 96.04-3.32L96.04-3.32 103.68-3.32 103.68-19.24 97.5-19.24Q96.67-19.24 96.32-19.62 95.96-20 95.96-20.9L95.96-20.9Q95.96-21.8 96.32-22.18 96.67-22.56 97.5-22.56L97.5-22.56 105.8-22.56ZM105.02-33.28Q106.36-33.28 106.85-32.92 107.34-32.57 107.34-31.69L107.34-31.69 107.34-28.52Q107.34-27.64 106.85-27.28 106.36-26.93 105.02-26.93L105.02-26.93Q103.68-26.93 103.19-27.28 102.7-27.64 102.7-28.52L102.7-28.52 102.7-31.69Q102.7-32.57 103.19-32.92 103.68-33.28 105.02-33.28L105.02-33.28ZM143.69-23.1Q144.69-23.1 145.11-22.73 145.52-22.36 145.52-21.51L145.52-21.51 145.52-14.43Q145.52-13.57 145.11-13.21 144.69-12.84 143.69-12.84L143.69-12.84Q142.69-12.84 142.28-13.21 141.86-13.57 141.86-14.43L141.86-14.43Q141.86-15.92 141.08-17.07 140.3-18.21 138.75-18.85 137.2-19.48 135.02-19.48L135.02-19.48Q132.68-19.48 130.82-18.43 128.97-17.38 127.92-15.5 126.87-13.62 126.87-11.28L126.87-11.28Q126.87-8.91 127.86-7.04 128.85-5.18 130.64-4.13 132.44-3.08 134.78-3.08L134.78-3.08Q137.03-3.08 139.14-3.77 141.25-4.47 142.98-5.79L142.98-5.79Q143.5-6.18 143.94-6.18L143.94-6.18Q144.64-6.18 145.25-5.18L145.25-5.18Q145.62-4.57 145.62-4L145.62-4Q145.62-3.15 144.84-2.59L144.84-2.59Q142.89-1.12 140.22-0.29 137.56 0.54 134.78 0.54L134.78 0.54Q131.29 0.54 128.62-1 125.94-2.54 124.48-5.22 123.01-7.91 123.01-11.28L123.01-11.28Q123.01-14.65 124.5-17.33 125.99-20.02 128.66-21.56 131.34-23.1 134.78-23.1L134.78-23.1Q136.95-23.1 138.77-22.3 140.59-21.51 141.86-20.04L141.86-20.04 141.86-21.51Q141.86-22.36 142.28-22.73 142.69-23.1 143.69-23.1L143.69-23.1ZM173.67-23.1Q174.67-23.1 175.09-22.73 175.5-22.36 175.5-21.51L175.5-21.51 175.5-14.43Q175.5-13.57 175.09-13.21 174.67-12.84 173.67-12.84L173.67-12.84Q172.67-12.84 172.25-13.21 171.84-13.57 171.84-14.43L171.84-14.43Q171.84-15.92 171.06-17.07 170.28-18.21 168.73-18.85 167.18-19.48 165-19.48L165-19.48Q162.66-19.48 160.8-18.43 158.95-17.38 157.9-15.5 156.85-13.62 156.85-11.28L156.85-11.28Q156.85-8.91 157.84-7.04 158.83-5.18 160.62-4.13 162.41-3.08 164.76-3.08L164.76-3.08Q167-3.08 169.12-3.77 171.23-4.47 172.96-5.79L172.96-5.79Q173.47-6.18 173.91-6.18L173.91-6.18Q174.62-6.18 175.23-5.18L175.23-5.18Q175.6-4.57 175.6-4L175.6-4Q175.6-3.15 174.82-2.59L174.82-2.59Q172.86-1.12 170.2-0.29 167.54 0.54 164.76 0.54L164.76 0.54Q161.27 0.54 158.59-1 155.92-2.54 154.46-5.22 152.99-7.91 152.99-11.28L152.99-11.28Q152.99-14.65 154.48-17.33 155.97-20.02 158.64-21.56 161.32-23.1 164.76-23.1L164.76-23.1Q166.93-23.1 168.75-22.3 170.57-21.51 171.84-20.04L171.84-20.04 171.84-21.51Q171.84-22.36 172.25-22.73 172.67-23.1 173.67-23.1L173.67-23.1Z" opacity="1" transform="matrix(1,0,0,1,0,0)" fill="#fff" class="wordmark-text-0" data-fill-palette-color="primary" id="text-0"></path></svg></g></svg></g></svg></g></svg></g><g><svg viewBox="0 0 114.5461723705384 99.827915467075" height="99.827915467075" width="114.5461723705384"><g><svg xmlns="http://www.w3.org/2000/svg" xmlns:xlink="http://www.w3.org/1999/xlink" version="1.0" x="0" y="0" viewBox="1.118 4.1185758 47.921 41.76353899999999" enable-background="new 0 0 50 50" xml:space="preserve" height="99.827915467075" width="114.5461723705384" class="icon-icon-0" data-fill-palette-color="accent" id="icon-0"><g fill="#fff" data-fill-palette-color="accent"><g fill="#fff" data-fill-palette-color="accent"><polygon fill="#fff" points="10.821,24.951 21,32.193 21,39.035 1.118,24.891 21,11.118 21,17.9   " data-fill-palette-color="accent"></polygon></g><g fill="#fff" data-fill-palette-color="accent"><polygon fill="#fff" points="49.039,25.277 35.815,16.063 34.219,21.712 39.475,25.338 31.411,30.97 29,38.79 29,39.424   " data-fill-palette-color="accent"></polygon></g><rect x="25.577" y="3.983" transform="matrix(0.9606 0.278 -0.278 0.9606 8.0575 -6.8179)" fill="#fff" width="4.981" height="42.035" data-fill-palette-color="accent"></rect></g></svg></g></svg></g></svg></g><defs></defs></svg><rect width="395.52" height="74.77027505314508" fill="none" stroke="none" visibility="hidden"></rect></g></svg></g></svg>